# xmcd
#
# Track frame offsets:
# 150
# 15487
# 32237
# 46522
# 63220
# 75045
# 90837
# 107362
# 123220
# 141732
#
# Disc length: 2067 seconds
#
#
# Revision: 0
# Processed by: cddbd v1.5PL3 Copyright (c) Steve Scherf et al.
# Submitted via: FreeRIP 2.60 
#
DISCID=6508110a
DTITLE=Various Artist - Hot Country Hits Of The 90's V.5
DYEAR=2000
DGENRE=Country
TTITLE0=01-Third Rate Romance/Sammy Kershaw
TTITLE1=Love A Little Stronger/Diamond Rio
TTITLE2=Drive South/Suzy Bogguss
TTITLE3=Backroads/Ricky Van Shelton
TTITLE4=My Baby Loves Me/Martina McBride
TTITLE5=Down To My Last Teardrop/Tanya Tucker
TTITLE6=The Tips Of My Fingers/Steve Wariner
TTITLE7=Nobody Wins/Radney Foster
TTITLE8=It Ain't Nothin/Keith Whitley
TTITLE9=Except Fo Monday/Lorrie Morgan
EXTD=
EXTT0=
EXTT1=
EXTT2=
EXTT3=
EXTT4=
EXTT5=
EXTT6=
EXTT7=
EXTT8=
EXTT9=
PLAYORDER=
